<?xml version="1.0" encoding="utf-8"?>
<!-- Generator: Adobe Illustrator 24.0.0, SVG Export Plug-In . SVG Version: 6.00 Build 0)  -->
<svg version="1.1" xmlns="http://www.w3.org/2000/svg" xmlns:xlink="http://www.w3.org/1999/xlink" x="0px" y="0px"
	 viewBox="0 0 256 256" style="enable-background:new 0 0 256 256;" xml:space="preserve">
<style type="text/css">
	.st0{fill:#F98FA6;}
	.st1{fill:#FC657E;}
	.st2{fill:#DAE6F1;}
	.st3{fill:#5290DB;}
	.st4{fill:#FCDD86;}
	.st5{fill:#F5C84C;}
	.st6{fill:#87D147;}
	.st7{fill:#70D6F9;}
	.st8{fill:#EDF4FC;}
	.st9{fill:#9BE5F9;}
	.st10{fill:#B2E26D;}
	.st11{fill:#F9C1A8;}
	.st12{fill:#414344;}
	.st13{fill:#E1FBFF;}
	.st14{fill:#FFE3EC;}
	.st15{fill:#FCBECF;}
	.st16{fill:#EF4460;}
	.st17{fill:#80C2F9;}
	.st18{fill:#3A70BF;}
	.st19{fill:#FCA265;}
	.st20{fill:#5B5D60;}
	.st21{fill:#818182;}
	.st22{fill:#C7D7E5;}
	.st23{fill:#F9D0B4;}
	.st24{fill:#AA6F59;}
	.st25{fill:#D1856D;}
	.st26{fill:#FCC29A;}
	.st27{fill:#29589F;}
	.st28{fill:#F7B386;}
	.st29{fill:#FC8C48;}
	.st30{fill:#FFF0CC;}
	.st31{fill:#57AF12;}
	.st32{fill:#3CAADC;}
	.st33{fill:#EDB311;}
	.st34{fill:#231F20;}
</style>
<g id="Layer_1">
</g>
<g id="Layer_2">
</g>
<g id="Layer_3">
</g>
<g id="Layer_4">
</g>
<g id="Layer_5">
</g>
<g id="Layer_6">
</g>
<g id="Layer_7">
</g>
<g id="Layer_8">
</g>
<g id="Layer_9">
</g>
<g id="Layer_10">
</g>
<g id="Layer_11">
</g>
<g id="Layer_12">
	<g>
		<g>
			<g>
				<path class="st17" d="M128,95.845c-2.952,0-5.346,2.394-5.346,5.346v4.88h10.692v-4.88
					C133.346,98.239,130.952,95.845,128,95.845z"/>
			</g>
		</g>
		<g>
			<g>
				
					<ellipse transform="matrix(0.7071 -0.7071 0.7071 0.7071 -42.4735 187.6358)" class="st3" cx="205.26" cy="145.088" rx="45.36" ry="45.36"/>
			</g>
		</g>
		<g>
			<g>
				
					<ellipse transform="matrix(0.9732 -0.2298 0.2298 0.9732 -31.977 15.539)" class="st3" cx="50.74" cy="145.088" rx="45.36" ry="45.36"/>
			</g>
		</g>
		<g>
			<g>
				<path class="st18" d="M159.9,145.088c0-16.601,8.922-31.111,22.229-39.017H73.871c13.306,7.906,22.229,22.416,22.229,39.017
					c0,15.767-8.048,29.65-20.256,37.778h104.313C167.948,174.738,159.9,160.855,159.9,145.088z"/>
			</g>
		</g>
		<g>
			<g>
				<path class="st18" d="M253.45,209.223l-3.322-57.468c-3.225,21.89-22.082,38.693-44.868,38.693
					c-9.285,0-17.914-2.795-25.103-7.581h-0.034l16.333,39.418c5.538,13.366,19.914,20.784,34.016,17.552h0
					C244.574,236.604,254.285,223.667,253.45,209.223z"/>
			</g>
		</g>
		<g>
			<g>
				<path class="st18" d="M75.844,182.866c-7.189,4.787-15.819,7.581-25.103,7.581c-22.786,0-41.642-16.803-44.868-38.693
					L2.55,209.223c-0.835,14.444,8.876,27.381,22.978,30.613h0c14.102,3.232,28.478-4.186,34.016-17.552l16.333-39.418H75.844z"/>
			</g>
		</g>
		<g>
			<g>
				<path class="st17" d="M65.81,89.916c-4.715-1.665-9.785-2.574-15.07-2.574c-5.285,0-10.355,0.91-15.07,2.574
					c-3.232,1.141-5.401,4.187-5.401,7.614v7.084c6.152-3.118,13.103-4.886,20.472-4.886c7.368,0,14.32,1.768,20.471,4.886V97.53
					C71.212,94.103,69.042,91.057,65.81,89.916z"/>
			</g>
		</g>
		<g>
			<g>
				<path class="st17" d="M220.33,89.916c-4.715-1.665-9.785-2.574-15.07-2.574c-5.285,0-10.355,0.91-15.07,2.574
					c-3.232,1.141-5.401,4.187-5.401,7.614v7.084c6.152-3.118,13.103-4.886,20.471-4.886c7.368,0,14.32,1.768,20.472,4.886V97.53
					C225.731,94.103,223.561,91.057,220.33,89.916z"/>
			</g>
		</g>
		<g>
			<g>
				<circle class="st5" cx="205.005" cy="125.186" r="8.668"/>
			</g>
		</g>
		<g>
			<g>
				<circle class="st6" cx="205.515" cy="164.99" r="8.668"/>
			</g>
		</g>
		<g>
			<g>
				<circle class="st7" cx="185.358" cy="145.343" r="8.668"/>
			</g>
		</g>
		<g>
			<g>
				<circle class="st1" cx="225.162" cy="144.833" r="8.668"/>
			</g>
		</g>
		<g>
			<g>
				<path class="st17" d="M55.198,118.138h-8.916c-1.643,0-2.974,1.332-2.974,2.974v9.059c0,0.994,0.497,1.923,1.324,2.475
					l4.458,2.972c0.999,0.666,2.3,0.666,3.299,0l4.458-2.972c0.827-0.552,1.324-1.48,1.324-2.475v-9.059
					C58.172,119.47,56.841,118.138,55.198,118.138z"/>
			</g>
		</g>
		<g>
			<g>
				<path class="st17" d="M56.848,157.53l-4.458-2.972c-0.999-0.666-2.3-0.666-3.299,0l-4.458,2.972
					c-0.827,0.552-1.324,1.48-1.324,2.475v9.059c0,1.642,1.332,2.974,2.974,2.974h8.916c1.642,0,2.974-1.332,2.974-2.974v-9.059
					C58.172,159.01,57.675,158.081,56.848,157.53z"/>
			</g>
		</g>
		<g>
			<g>
				<path class="st17" d="M41.27,143.438l-2.972-4.458c-0.552-0.827-1.48-1.324-2.475-1.324h-9.059
					c-1.643,0-2.974,1.332-2.974,2.974v8.916c0,1.642,1.332,2.974,2.974,2.974h9.059c0.994,0,1.923-0.497,2.475-1.324l2.972-4.458
					C41.936,145.739,41.936,144.437,41.27,143.438z"/>
			</g>
		</g>
		<g>
			<g>
				<path class="st17" d="M74.716,137.656h-9.059c-0.994,0-1.923,0.497-2.475,1.324l-2.972,4.458c-0.666,0.999-0.666,2.3,0,3.299
					l2.972,4.458c0.552,0.827,1.48,1.324,2.475,1.324h9.059c1.642,0,2.974-1.332,2.974-2.974v-8.916
					C77.69,138.988,76.358,137.656,74.716,137.656z"/>
			</g>
		</g>
		<g>
			<g>
				<path class="st1" d="M133.731,159.332h-11.462c-0.939,0-1.701,0.761-1.701,1.701v7.746c0,0.939,0.761,1.701,1.701,1.701h11.462
					c0.939,0,1.701-0.761,1.701-1.701v-7.746C135.432,160.094,134.67,159.332,133.731,159.332z"/>
			</g>
		</g>
		<g>
			<g>
				<path class="st3" d="M102.608,106.071v4.24c0,5.843,4.781,10.624,10.624,10.624h29.536c5.843,0,10.624-4.781,10.624-10.624
					v-4.24H102.608z"/>
			</g>
		</g>
		<g>
			<g>
				<path class="st5" d="M168.983,54.882c-4.498-0.838-8.043-4.31-8.898-8.716c-0.043-0.221-0.352-0.221-0.395,0
					c-0.855,4.406-4.4,7.879-8.898,8.716c-0.226,0.042-0.226,0.345,0,0.387c4.498,0.838,8.043,4.31,8.898,8.717
					c0.043,0.221,0.352,0.221,0.395,0c0.855-4.406,4.4-7.879,8.898-8.717C169.209,55.227,169.209,54.924,168.983,54.882z"/>
			</g>
		</g>
		<g>
			<g>
				<path class="st7" d="M101.694,204.487h-2.329v-2.33c0-1.744-1.413-3.157-3.157-3.157c-1.744,0-3.157,1.413-3.157,3.157v2.33
					h-2.33c-1.744,0-3.157,1.413-3.157,3.157s1.413,3.157,3.157,3.157h2.33v2.33c0,1.744,1.413,3.157,3.157,3.157
					c1.744,0,3.157-1.413,3.157-3.157v-2.33h2.329c1.744,0,3.157-1.413,3.157-3.157S103.438,204.487,101.694,204.487z"/>
			</g>
		</g>
		<g>
			<g>
				<path class="st1" d="M172.999,72.246c-1.865,0-3.377,1.512-3.377,3.377c0,1.865,1.512,3.377,3.377,3.377
					s3.377-1.512,3.377-3.377C176.376,73.758,174.864,72.246,172.999,72.246z"/>
			</g>
		</g>
		<g>
			<g>
				<path class="st5" d="M80.999,225.246c-1.865,0-3.377,1.512-3.377,3.377c0,1.865,1.512,3.377,3.377,3.377
					s3.377-1.512,3.377-3.377C84.376,226.758,82.864,225.246,80.999,225.246z"/>
			</g>
		</g>
		<g>
			<g>
				<path class="st6" d="M102.999,85.246c-1.865,0-3.377,1.512-3.377,3.377c0,1.865,1.512,3.377,3.377,3.377
					s3.377-1.512,3.377-3.377C106.376,86.758,104.864,85.246,102.999,85.246z"/>
			</g>
		</g>
		<g>
			<g>
				<g>
					<path d="M205.26,97.228c-26.39,0-47.86,21.47-47.86,47.86s21.47,47.86,47.86,47.86s47.86-21.47,47.86-47.86
						S231.65,97.228,205.26,97.228z M205.26,187.948c-23.633,0-42.86-19.227-42.86-42.86s19.227-42.86,42.86-42.86
						s42.86,19.227,42.86,42.86S228.893,187.948,205.26,187.948z"/>
				</g>
			</g>
		</g>
		<g>
			<g>
				<g>
					<path d="M50.74,97.228c-26.39,0-47.86,21.47-47.86,47.86s21.47,47.86,47.86,47.86s47.86-21.47,47.86-47.86
						S77.13,97.228,50.74,97.228z M50.74,187.948c-23.633,0-42.86-19.227-42.86-42.86s19.227-42.86,42.86-42.86
						s42.86,19.227,42.86,42.86S74.373,187.948,50.74,187.948z"/>
				</g>
			</g>
		</g>
		<g>
			<g>
				<path d="M181.75,103.571H74c-1.381,0-2.5,1.119-2.5,2.5s1.119,2.5,2.5,2.5h107.75c1.381,0,2.5-1.119,2.5-2.5
					S183.131,103.571,181.75,103.571z"/>
			</g>
		</g>
		<g>
			<g>
				<path d="M179.188,180.366h-102.5c-1.381,0-2.5,1.119-2.5,2.5s1.119,2.5,2.5,2.5h102.5c1.381,0,2.5-1.119,2.5-2.5
					S180.569,180.366,179.188,180.366z"/>
			</g>
		</g>
		<g>
			<g>
				<path d="M113.756,134.537h-3.716c-1.381,0-2.5,1.119-2.5,2.5s1.119,2.5,2.5,2.5h3.716c1.381,0,2.5-1.119,2.5-2.5
					S115.137,134.537,113.756,134.537z"/>
			</g>
		</g>
		<g>
			<g>
				<path d="M145.96,134.537h-3.716c-1.381,0-2.5,1.119-2.5,2.5s1.119,2.5,2.5,2.5h3.716c1.381,0,2.5-1.119,2.5-2.5
					S147.341,134.537,145.96,134.537z"/>
			</g>
		</g>
		<g>
			<g>
				<path d="M255.945,209.079l-3.313-57.298c-0.079-1.378-1.274-2.44-2.64-2.351c-1.378,0.08-2.432,1.262-2.352,2.64l3.313,57.298
					c0.768,13.273-8.082,25.062-21.041,28.032c-12.957,2.972-26.059-3.79-31.148-16.072l-16.103-38.864
					c-0.528-1.275-1.991-1.882-3.267-1.353c-1.275,0.528-1.881,1.991-1.353,3.267l16.103,38.864
					c5.074,12.246,16.873,19.855,29.635,19.855c2.395,0,4.824-0.268,7.25-0.824C246.376,238.756,256.854,224.796,255.945,209.079z"
					/>
			</g>
		</g>
		<g>
			<g>
				<path d="M76.556,181.229c-1.276-0.529-2.738,0.078-3.267,1.353l-16.055,38.747c-5.089,12.283-18.192,19.044-31.148,16.072
					c-12.959-2.97-21.809-14.759-21.041-28.032l3.302-57.118c0.08-1.378-0.973-2.561-2.351-2.64c-1.38-0.08-2.561,0.973-2.64,2.351
					l-3.302,57.118c-0.909,15.717,9.569,29.678,24.915,33.195c2.426,0.556,4.854,0.824,7.25,0.824
					c12.761-0.001,24.561-7.61,29.635-19.855l16.055-38.747C78.437,183.22,77.832,181.757,76.556,181.229z"/>
			</g>
		</g>
		<g>
			<g>
				<path d="M66.643,87.559c-10.212-3.605-21.592-3.605-31.805,0c-4.228,1.493-7.069,5.5-7.069,9.972v6.532
					c0,1.381,1.119,2.5,2.5,2.5s2.5-1.119,2.5-2.5V97.53c0-2.355,1.5-4.468,3.733-5.257c9.141-3.227,19.336-3.227,28.476,0
					c2.233,0.789,3.734,2.901,3.734,5.257v6.532c0,1.381,1.119,2.5,2.5,2.5s2.5-1.119,2.5-2.5V97.53
					C73.712,93.059,70.871,89.052,66.643,87.559z"/>
			</g>
		</g>
		<g>
			<g>
				<path d="M221.162,87.559c-10.212-3.605-21.592-3.605-31.805,0c-4.228,1.493-7.069,5.5-7.069,9.972v6.262
					c0,1.381,1.119,2.5,2.5,2.5s2.5-1.119,2.5-2.5V97.53c0-2.355,1.5-4.468,3.733-5.257c9.141-3.227,19.336-3.227,28.476,0
					c2.233,0.789,3.734,2.901,3.734,5.257v6.095c0,1.381,1.119,2.5,2.5,2.5s2.5-1.119,2.5-2.5V97.53
					C228.231,93.059,225.391,89.052,221.162,87.559z"/>
			</g>
		</g>
		<g>
			<g>
				<path d="M130.5,41.782c0-5.707,2.219-8.443,4.788-11.611c2.768-3.413,5.904-7.281,5.904-14.761c0-1.381-1.119-2.5-2.5-2.5
					s-2.5,1.119-2.5,2.5c0,5.707-2.219,8.443-4.788,11.611c-2.767,3.413-5.904,7.281-5.904,14.76c0,7.48,3.137,11.349,5.904,14.762
					c2.569,3.169,4.788,5.906,4.788,11.613s-2.219,8.444-4.788,11.612c-2.768,3.414-5.904,7.282-5.904,14.762
					c0,1.381,1.119,2.5,2.5,2.5s2.5-1.119,2.5-2.5c0-5.708,2.219-8.444,4.788-11.613c2.767-3.413,5.904-7.282,5.904-14.761
					c0-7.48-3.137-11.349-5.904-14.762C132.719,50.227,130.5,47.49,130.5,41.782z"/>
			</g>
		</g>
		<g>
			<g>
				<path d="M130.5,41.782c0-5.707,2.219-8.443,4.788-11.611c2.768-3.413,5.904-7.281,5.904-14.761c0-1.381-1.119-2.5-2.5-2.5
					s-2.5,1.119-2.5,2.5c0,5.707-2.219,8.443-4.788,11.611c-2.767,3.413-5.904,7.281-5.904,14.76c0,7.48,3.137,11.349,5.904,14.762
					c2.569,3.169,4.788,5.906,4.788,11.613s-2.219,8.444-4.788,11.612c-2.768,3.414-5.904,7.282-5.904,14.762
					c0,1.381,1.119,2.5,2.5,2.5s2.5-1.119,2.5-2.5c0-5.708,2.219-8.444,4.788-11.613c2.767-3.413,5.904-7.282,5.904-14.761
					c0-7.48-3.137-11.349-5.904-14.762C132.719,50.227,130.5,47.49,130.5,41.782z"/>
			</g>
		</g>
		<g>
			<g>
				<path d="M128,93.345c-4.326,0-7.846,3.52-7.846,7.846v4.215c0,1.381,1.119,2.5,2.5,2.5s2.5-1.119,2.5-2.5v-4.215
					c0-1.569,1.277-2.846,2.846-2.846s2.846,1.277,2.846,2.846v4.34c0,1.381,1.119,2.5,2.5,2.5s2.5-1.119,2.5-2.5v-4.34
					C135.846,96.865,132.326,93.345,128,93.345z"/>
			</g>
		</g>
		<g>
			<g>
				<g>
					<path d="M205.005,114.018c-6.158,0-11.167,5.01-11.167,11.168c0,6.158,5.01,11.167,11.167,11.167s11.167-5.01,11.167-11.167
						C216.172,119.028,211.163,114.018,205.005,114.018z M205.005,131.354c-3.401,0-6.167-2.767-6.167-6.167
						s2.767-6.168,6.167-6.168s6.167,2.767,6.167,6.168S208.406,131.354,205.005,131.354z"/>
				</g>
			</g>
		</g>
		<g>
			<g>
				<g>
					<path d="M205.515,153.822c-6.158,0-11.167,5.01-11.167,11.168c0,6.158,5.01,11.167,11.167,11.167s11.167-5.01,11.167-11.167
						C216.682,158.832,211.672,153.822,205.515,153.822z M205.515,171.158c-3.401,0-6.167-2.767-6.167-6.167
						s2.767-6.168,6.167-6.168s6.167,2.767,6.167,6.168S208.916,171.158,205.515,171.158z"/>
				</g>
			</g>
		</g>
		<g>
			<g>
				<g>
					<path d="M185.358,134.175c-6.158,0-11.168,5.01-11.168,11.167s5.01,11.167,11.168,11.167c6.158,0,11.167-5.01,11.167-11.167
						S191.516,134.175,185.358,134.175z M185.358,151.51c-3.401,0-6.168-2.767-6.168-6.167s2.767-6.167,6.168-6.167
						s6.167,2.767,6.167,6.167S188.759,151.51,185.358,151.51z"/>
				</g>
			</g>
		</g>
		<g>
			<g>
				<g>
					<path d="M225.162,133.666c-6.158,0-11.167,5.01-11.167,11.167S219.004,156,225.162,156c6.158,0,11.168-5.01,11.168-11.167
						S231.32,133.666,225.162,133.666z M225.162,151c-3.401,0-6.167-2.767-6.167-6.167s2.767-6.167,6.167-6.167
						c3.401,0,6.168,2.767,6.168,6.167S228.562,151,225.162,151z"/>
				</g>
			</g>
		</g>
		<g>
			<g>
				<g>
					<path d="M55.198,115.638h-8.916c-3.019,0-5.474,2.456-5.474,5.474v9.059c0,1.834,0.911,3.537,2.438,4.555l4.458,2.972
						c0.922,0.615,1.979,0.922,3.037,0.922s2.114-0.308,3.037-0.922l4.458-2.972c1.526-1.018,2.438-2.72,2.438-4.555v-9.059
						C60.672,118.094,58.216,115.638,55.198,115.638z M55.672,130.171c0,0.159-0.079,0.307-0.211,0.395l-4.458,2.972
						c-0.16,0.106-0.366,0.106-0.526,0l-4.457-2.971c-0.132-0.088-0.211-0.236-0.211-0.395v-9.059c0-0.261,0.213-0.474,0.474-0.474
						h8.916c0.261,0,0.474,0.213,0.474,0.474V130.171z"/>
				</g>
			</g>
		</g>
		<g>
			<g>
				<g>
					<path d="M58.234,155.45l-4.458-2.972c-1.845-1.229-4.229-1.229-6.073,0l-4.458,2.972c-1.526,1.018-2.437,2.72-2.437,4.554
						v9.059c0,3.019,2.456,5.474,5.474,5.474h8.916c3.018,0,5.474-2.456,5.474-5.474v-9.059
						C60.672,158.17,59.761,156.467,58.234,155.45z M55.672,169.063c0,0.261-0.212,0.474-0.474,0.474h-8.916
						c-0.261,0-0.474-0.213-0.474-0.474v-9.059c0-0.159,0.079-0.307,0.211-0.395l4.458-2.972c0.08-0.053,0.171-0.08,0.263-0.08
						s0.183,0.027,0.263,0.08l4.458,2.972c0.132,0.088,0.211,0.235,0.211,0.395V169.063z"/>
				</g>
			</g>
		</g>
		<g>
			<g>
				<g>
					<path d="M43.35,142.051l-2.972-4.458c-1.018-1.526-2.72-2.437-4.554-2.437h-9.059c-3.019,0-5.474,2.456-5.474,5.474v8.916
						c0,3.018,2.456,5.474,5.474,5.474h9.059c1.834,0,3.537-0.911,4.555-2.438l2.972-4.458
						C44.58,146.28,44.58,143.896,43.35,142.051z M39.19,145.351l-2.972,4.458c-0.088,0.132-0.235,0.211-0.395,0.211h-9.059
						c-0.261,0-0.474-0.212-0.474-0.474v-8.916c0-0.261,0.213-0.474,0.474-0.474h9.059c0.159,0,0.307,0.079,0.395,0.211l2.972,4.458
						C39.296,144.984,39.296,145.191,39.19,145.351z"/>
				</g>
			</g>
		</g>
		<g>
			<g>
				<g>
					<path d="M74.716,135.156h-9.059c-1.834,0-3.537,0.911-4.555,2.438l-2.972,4.458c-1.23,1.845-1.23,4.229,0,6.073l2.972,4.458
						c1.018,1.526,2.72,2.438,4.555,2.438h9.059c3.019,0,5.474-2.456,5.474-5.474v-8.916
						C80.19,137.612,77.734,135.156,74.716,135.156z M75.19,149.546c0,0.261-0.213,0.474-0.474,0.474h-9.059
						c-0.159,0-0.307-0.079-0.395-0.211l-2.972-4.458c-0.106-0.16-0.106-0.367,0-0.526l2.971-4.457
						c0.088-0.132,0.236-0.211,0.395-0.211h9.059c0.261,0,0.474,0.213,0.474,0.474V149.546z"/>
				</g>
			</g>
		</g>
		<g>
			<g>
				<g>
					<path d="M133.731,156.832h-11.462c-2.316,0-4.201,1.884-4.201,4.201v7.747c0,2.316,1.884,4.201,4.201,4.201h11.462
						c2.316,0,4.201-1.884,4.201-4.201v-7.747C137.932,158.716,136.047,156.832,133.731,156.832z M132.932,167.98h-9.863v-6.148
						h9.863V167.98z"/>
				</g>
			</g>
		</g>
		<g>
			<g>
				<path d="M153.392,104.219c-1.381,0-2.5,1.119-2.5,2.5v3.592c0,4.479-3.645,8.124-8.124,8.124h-29.536
					c-4.479,0-8.124-3.645-8.124-8.124v-3.436c0-1.381-1.119-2.5-2.5-2.5s-2.5,1.119-2.5,2.5v3.436
					c0,7.237,5.887,13.124,13.124,13.124h29.536c7.237,0,13.124-5.887,13.124-13.124v-3.592
					C155.892,105.338,154.773,104.219,153.392,104.219z"/>
			</g>
		</g>
	</g>
</g>
<g id="Layer_13">
</g>
<g id="Layer_14">
</g>
<g id="Layer_15">
</g>
<g id="Layer_16">
</g>
<g id="Layer_17">
</g>
<g id="Layer_18">
</g>
<g id="Layer_19">
</g>
<g id="Layer_20">
</g>
<g id="Layer_21">
</g>
<g id="Layer_22">
</g>
<g id="Layer_23">
</g>
<g id="Layer_24">
</g>
<g id="Layer_25">
</g>
<g id="Layer_26">
</g>
<g id="Layer_27">
</g>
<g id="Layer_28">
</g>
<g id="Layer_29">
</g>
<g id="Layer_30">
</g>
<g id="Layer_31">
</g>
<g id="Layer_32">
</g>
<g id="Layer_33">
</g>
<g id="Layer_34">
</g>
<g id="Layer_35">
</g>
<g id="Layer_36">
</g>
<g id="Layer_37">
</g>
<g id="Layer_38">
</g>
<g id="Layer_39">
</g>
<g id="Layer_40">
</g>
<g id="Layer_41">
</g>
<g id="Layer_42">
</g>
<g id="Layer_43">
</g>
<g id="Layer_44">
</g>
<g id="Layer_45">
</g>
<g id="Layer_46">
</g>
<g id="Layer_47">
</g>
<g id="Layer_48">
</g>
<g id="Layer_49">
</g>
<g id="Layer_50">
</g>
<g id="Layer_51">
</g>
<g id="Layer_52">
</g>
<g id="Layer_53">
</g>
<g id="Layer_54">
</g>
<g id="Layer_55">
</g>
<g id="Layer_56">
</g>
<g id="Layer_57">
</g>
<g id="Layer_58">
</g>
<g id="Layer_59">
</g>
<g id="Layer_60">
</g>
<g id="Layer_61">
</g>
<g id="Layer_62">
</g>
<g id="Layer_63">
</g>
<g id="Layer_64">
</g>
<g id="Layer_65">
</g>
<g id="Layer_66">
</g>
<g id="Layer_67">
</g>
<g id="Layer_68">
</g>
<g id="Layer_69">
</g>
<g id="Layer_70">
</g>
<g id="Layer_71">
</g>
<g id="Layer_72">
</g>
<g id="Layer_73">
</g>
<g id="Layer_74">
</g>
<g id="Layer_75">
</g>
<g id="Layer_76">
</g>
<g id="Layer_77">
</g>
<g id="Layer_78">
</g>
<g id="Layer_79">
</g>
<g id="Layer_80">
</g>
<g id="Layer_81">
</g>
<g id="Layer_82">
</g>
<g id="Layer_83">
</g>
<g id="Layer_84">
</g>
<g id="Layer_85">
</g>
</svg>
