<svg width="905" height="88" viewBox="0 0 905 88" fill="none" xmlns="http://www.w3.org/2000/svg">
               <path d="M455 0.000530243L455 13.3875C417 13.3875 417 55.0004 379 55.0004C341 55.0004 341 13.3875 303 13.3875C265 13.3875 265 55.0004 227 55.0004C189 55.0005 189 13.3875 151 13.3876C113.01 13.3876 113 55.0005 75 55.0005C37 55.0005 37 13.3876 -1 13.3876C-39 13.3876 -39 55.0005 -77 55.0005L-77 0.000576752L455 0.000530243Z" fill="white"></path>
        <path d="M455.001 0.000538605L455 13.3875C493 13.3875 493 55.0004 530.999 55.0005C568.998 55.0005 569.001 13.3876 607 13.3876C644.999 13.3876 644.999 55.0005 682.998 55.0005C720.998 55.0005 721 13.3876 758.997 13.3876C796.993 13.3876 796.999 55.0005 834.998 55.0005C872.997 55.0005 873 13.3876 910.999 13.3876C948.999 13.3876 949.001 55.0005 987 55.0005L987 0.000591278L455.001 0.000538605Z" fill="white"></path>
      </svg>